<?xml version="1.0" standalone="no"?>
<!DOCTYPE svg PUBLIC "-//W3C//DTD SVG 20010904//EN"
 "http://www.w3.org/TR/2001/REC-SVG-20010904/DTD/svg10.dtd">
<svg version="1.0" xmlns="http://www.w3.org/2000/svg"
 width="577.000000pt" height="577.000000pt" viewBox="0 0 577.000000 577.000000"
 preserveAspectRatio="xMidYMid meet">
<metadata>
Created by potrace 1.14, written by Peter Selinger 2001-2017
</metadata>
<g transform="translate(0.000000,577.000000) scale(0.100000,-0.100000)"
fill="#000000" stroke="none">
<path d="M2713 4832 c-40 -81 -73 -150 -73 -154 0 -3 -8 -23 -17 -44 -9 -22
-17 -41 -18 -44 0 -3 -5 -13 -11 -24 -11 -18 -14 -17 -80 9 -38 15 -75 32 -81
37 -7 6 -13 8 -13 5 0 -4 -19 0 -41 8 -23 8 -45 15 -50 15 -8 0 -5 -33 10
-100 5 -25 13 -60 16 -79 3 -19 8 -38 11 -43 6 -10 -43 -76 -78 -103 -46 -37
-147 -105 -156 -105 -6 0 -12 -4 -14 -8 -1 -4 -29 -21 -61 -36 -31 -16 -54
-32 -51 -35 8 -9 502 -9 549 0 22 4 69 10 105 13 36 4 84 9 108 12 28 4 42 2
42 -6 0 -6 -15 -41 -34 -78 -47 -90 -53 -118 -31 -142 28 -31 12 -53 -33 -48
-136 17 -516 -174 -679 -341 -40 -41 -73 -77 -73 -82 0 -4 -12 -22 -27 -40
-16 -18 -27 -34 -25 -36 1 -2 -4 -13 -11 -26 -8 -12 -52 -87 -98 -167 -78
-135 -264 -422 -313 -481 -11 -14 -28 -36 -36 -49 -8 -12 -23 -31 -32 -42 -10
-12 -18 -27 -18 -35 0 -7 -4 -13 -8 -13 -5 0 -29 -29 -55 -64 -26 -35 -89
-104 -139 -153 -221 -212 -279 -276 -262 -293 5 -5 25 -12 44 -14 19 -3 35 -5
35 -6 0 -1 14 -3 30 -5 17 -2 61 -8 99 -14 38 -5 73 -8 78 -5 4 3 8 2 8 -3 0
-4 27 -8 60 -8 33 0 60 2 60 5 0 5 48 5 60 0 3 -1 10 -1 15 0 6 1 44 4 85 6
41 2 90 6 108 9 17 3 47 8 65 10 17 3 43 7 57 10 14 3 41 8 60 11 19 3 60 12
90 19 30 8 66 16 80 19 71 14 160 52 160 68 0 6 21 39 46 75 38 54 62 74 104
88 3 1 17 7 33 13 75 32 73 32 135 2 32 -17 76 -36 98 -43 33 -12 39 -19 40
-43 0 -16 2 -33 4 -39 12 -34 -58 -156 -182 -316 -124 -161 -368 -408 -466
-474 -84 -57 -97 -83 -61 -122 49 -52 95 -67 204 -68 94 0 104 2 167 33 71 36
104 63 153 127 17 21 40 49 51 61 12 13 21 24 19 26 -2 2 3 8 10 15 11 10 18
5 37 -25 12 -20 25 -41 27 -47 2 -5 13 -17 23 -26 18 -16 73 -159 61 -159 -3
0 1 -7 8 -17 8 -9 13 -19 12 -22 -1 -3 2 -24 8 -46 13 -45 14 -52 29 -115 6
-25 13 -52 17 -60 3 -8 7 -19 7 -25 4 -31 40 -132 54 -151 21 -29 72 -32 95
-6 22 24 107 250 110 294 1 10 5 18 10 18 5 0 7 7 4 15 -4 8 -2 17 4 20 5 4 7
10 4 15 -3 5 -1 11 5 15 6 4 8 10 5 15 -3 4 9 13 25 19 23 8 32 7 34 -2 2 -7
11 -43 20 -82 33 -147 67 -261 85 -285 25 -34 67 -33 93 1 11 14 30 61 43 105
12 43 35 120 50 169 23 78 54 196 70 272 3 12 10 34 15 48 5 14 8 25 5 25 -2
0 17 35 43 77 26 43 56 106 66 141 11 34 22 62 26 62 3 0 20 -12 37 -27 32
-29 204 -89 222 -79 5 4 11 2 13 -4 3 -11 166 -23 181 -13 4 2 -23 28 -60 56
-104 78 -119 94 -200 202 -75 100 -159 195 -173 195 -13 0 -65 50 -65 62 0 8
49 28 120 49 206 62 317 110 396 171 20 15 39 24 43 21 7 -7 17 -9 86 -17 25
-3 68 -8 96 -11 199 -23 379 -7 461 41 81 47 80 49 -79 182 -139 116 -299 271
-373 362 -20 25 -56 65 -79 90 -45 49 -192 223 -241 285 -80 104 -204 246
-259 300 -81 78 -147 135 -157 135 -4 0 -9 4 -11 8 -7 18 -128 84 -208 113
-88 32 -117 38 -210 42 l-55 2 3 45 c3 44 1 47 -77 130 -76 79 -95 110 -71
110 6 0 28 12 49 26 22 14 45 27 53 28 7 2 24 6 38 9 47 12 124 18 265 23 155
4 231 16 289 46 l39 20 -29 17 c-80 48 -223 119 -228 114 -3 -4 -6 -1 -6 5 0
7 -3 11 -7 10 -5 0 -15 1 -23 5 -33 12 -120 28 -128 23 -14 -8 -82 14 -83 27
0 7 -2 21 -4 32 -1 11 -6 42 -9 68 -9 74 -22 80 -87 46 -30 -15 -60 -31 -68
-35 -14 -7 -50 30 -51 53 0 14 -136 273 -143 273 -1 0 -35 -67 -74 -148z m890
-2324 c-4 -7 -6 -20 -5 -28 3 -19 -91 -77 -138 -86 l-35 -6 44 39 c24 21 58
50 75 65 32 28 74 39 59 16z"/>
</g>
</svg>
